<svg width="200" height="200" viewBox="0 0 200 200" fill="none" xmlns="http://www.w3.org/2000/svg">
  <!-- Zebra's head -->
  <path d="M104.688 103.5C98.6874 103.665 92.5632 102.81 87.8121 100.377C83.062 97.9435 80.0537 94.1289 79.0624 89.8905C78.0712 85.6522 79.1744 81.4644 82.0868 78.0576C85.8934 73.7137 91.8393 71.9326 97.0621 73.1446C102.285 74.3566 106.72 78.4265 108.882 83.8744C110.751 88.8526 110.547 94.1779 108.375 98.6664C106.202 103.155 102.265 106.248 97.5999 107.629C95.0871 108.506 92.4341 108.507 89.9212 107.631C89.2567 107.413 88.5981 107.124 87.9547 106.767C86.9761 106.201 86.0861 105.481 85.3156 104.647C83.2263 102.501 81.7699 99.8958 81.1954 97.1239C80.6209 94.3521 80.9605 91.5365 82.1571 89.0428C83.6979 85.5709 86.5748 82.9479 89.8968 81.3066C92.8583 79.8439 96.1429 79.8689 99.0771 81.3725C102.011 82.8762 104.191 85.7457 104.892 89.0829C105.593 92.4202 104.759 95.8727 102.554 98.4672C100.012 102.154 95.7788 104.042 91.25 103.384C108.125 107.126 110.562 105.735 111.375 105.003C112.875 103.516 114.5 100.126 113.5 96.125C112.5 92.125 104.688 103.5 104.688 103.5Z" fill="#FFFFFF" stroke="#000000" stroke-width="2"/>
</svg>
